<?xml version="1.0" encoding="UTF-8"?>
<svg width="153px" height="30px" viewBox="0 0 153 30" version="1.1" xmlns="http://www.w3.org/2000/svg" xmlns:xlink="http://www.w3.org/1999/xlink">
    <!-- Generator: Sketch 62 (91390) - https://sketch.com -->
    <title>logo</title>
    <desc>Created with Sketch.</desc>
    <g id="Page-1" stroke="none" stroke-width="1" fill="none" fill-rule="evenodd">
        <g id="Desktop-HD" transform="translate(-61.000000, -30.000000)" fill="#000000">
            <g id="logo" transform="translate(61.000000, 30.000000)">
                <path d="M13.2005669,12.9750732 C12.4751575,12.970069 11.754345,13.0901849 11.0699975,13.3301105 C10.4218661,13.5541675 9.82783497,13.9107534 9.32597422,14.3770154 C8.81763872,14.861586 8.41463637,15.4451612 8.14198636,16.0915117 C7.82849814,16.8544359 7.67618625,17.6736174 7.69456678,18.4978756 C7.69456678,20.3408327 8.22315091,21.7215333 9.28031916,22.6399774 C10.3504046,23.5657496 11.7294849,24.058342 13.1457808,24.020678 C13.9308944,24.0384647 14.7141019,23.9361253 15.4681015,23.7172273 C16.0635378,23.5331832 16.6461444,23.3101683 17.2121248,23.0496358 C17.7480597,23.4055345 18.20408,23.8684481 18.5513398,24.4090949 C18.8607291,24.9432799 19.0155988,25.5524906 18.9987594,26.1691088 C18.9987594,27.3829115 18.4174183,28.3256316 17.2547361,28.9972691 C16.092054,29.6689067 14.4829668,30.0027024 12.4274746,29.9986564 C10.6938181,30.0219339 8.96944705,29.742593 7.33236998,29.1732705 C5.88696714,28.668982 4.5572227,27.8817911 3.42125325,26.8579418 C2.33046211,25.8578564 1.46969114,24.634252 0.89805032,23.2711548 C0.287402135,21.8031554 -0.0170613409,20.2265705 0.00321116317,18.6374629 C-0.0364133674,16.8701837 0.291046526,15.1138363 0.965011074,13.4788013 C1.5477583,12.0827526 2.44189191,10.8374326 3.57952412,9.83739318 C4.69851648,8.88324245 5.99710067,8.16111327 7.39933073,7.71323841 C8.87329064,7.23434477 10.4145975,6.99360038 11.9648366,7 C14.1096099,7 15.7633375,7.38652318 16.9260197,8.15931091 C18.0887019,8.93209865 18.670043,9.92741688 18.670043,11.1452656 C18.6730845,11.6977382 18.5348091,12.241864 18.2682785,12.7262437 C18.0182042,13.1915463 17.7025089,13.6187 17.3308279,13.9946675 C16.7382978,13.7235879 16.1281937,13.4924463 15.5046255,13.3027999 C14.7575236,13.0785842 13.9807522,12.9680971 13.2005669,12.9750732 Z" id="Path"></path>
                <path d="M42.9850611,28.6098429 C42.5315455,28.7277591 42.0703312,28.8145805 41.6047101,28.8696875 C40.9581958,28.9575473 40.3062911,29.000959 39.6536945,28.9996098 C39.0733872,29.0046036 38.4936901,28.9611416 37.9207863,28.8696875 C37.4523937,28.8007863 37.0076486,28.6215284 36.6240929,28.3470455 C36.2609314,28.0718492 35.9800741,27.70448 35.8114187,27.2840448 C35.5966436,26.7233246 35.4951384,26.1264421 35.5126414,25.5271408 L35.5126414,15.9099371 C35.5126414,14.7288252 35.2138642,13.8981098 34.6163096,13.417791 C33.9896055,12.9315356 33.2108169,12.6767203 32.4143211,12.6973127 C31.8512694,12.694009 31.2903867,12.7665267 30.7471439,12.9128657 C30.299724,13.0244761 29.8710128,13.1995217 29.4743527,13.4325549 L29.4743527,28.6098429 C29.0208412,28.7277774 28.5596257,28.8145991 28.0940017,28.8696875 C27.4474853,28.9575284 26.795582,29.00094 26.142986,28.9996098 C25.5626778,29.0046318 24.9829783,28.9611696 24.4100778,28.8696875 C23.9416853,28.8007863 23.4969401,28.6215284 23.1133845,28.3470455 C22.7501159,28.0719543 22.4692342,27.7045531 22.3007103,27.2840448 C22.0859351,26.7233246 21.9844299,26.1264421 22.001933,25.5271408 L22.001933,0.390126668 C22.3345717,0.327134033 22.8156031,0.247408979 23.4450272,0.150951507 C24.0752982,0.0501983118 24.7127637,-1.47267181e-15 25.3512263,0.000359738786 C25.9315274,-0.00445172725 26.5112089,0.0390090661 27.0841345,0.130282048 C27.55119,0.198869507 27.9948132,0.37707558 28.3778401,0.649971287 C28.7407883,0.925376841 29.0215969,1.29268239 29.1905143,1.712972 C29.404916,2.27379196 29.5064087,2.87060099 29.4892915,3.46987596 L29.4892915,7.71597326 C30.0566874,7.51668598 30.6352936,7.35006667 31.2221997,7.21695348 C32.0626156,7.01713417 32.9243097,6.91799542 33.7886966,6.92167551 C36.6828524,6.92167551 38.9416087,7.63723247 40.5649652,9.0683464 C42.1883217,10.4994603 43,12.6303831 43,15.4611146 L43,28.6098429 L42.9850611,28.6098429 Z" id="Path"></path>
                <path d="M56.6621686,7.00090176 C58.0900679,6.98625599 59.5144402,7.15005864 60.9042508,7.48874069 C62.0756853,7.76556295 63.1856501,8.2693769 64.1752893,8.97346784 C65.0662315,9.62479915 65.784471,10.4968756 66.2640601,11.5096242 C66.7772103,12.6468514 67.028248,13.8914235 66.9974768,15.1456907 L66.9974768,25.1054829 C67.0250608,25.7942114 66.8021581,26.4686777 66.3726058,26.9962375 C65.9434617,27.4955944 65.4416629,27.9228991 64.8852367,28.2628007 C63.0194246,29.4182618 60.391837,29.9970024 57.002474,29.9990225 C55.6214251,30.0136443 54.2433288,29.86419 52.8953404,29.5536043 C51.7743687,29.3048016 50.7047531,28.8534609 49.7357812,28.2203799 C48.8842824,27.6550565 48.1873471,26.8736717 47.7115511,25.9508684 C47.2216439,24.9605204 46.9776848,23.8599534 47.0016038,22.7480998 C47.0016038,20.7018024 47.5883371,19.1302136 48.7618039,18.0333336 C49.9352706,16.9364535 51.7580556,16.254691 54.2301588,15.9880462 L59.8716001,15.3638547 L59.8716001,15.0608492 C59.9155315,14.2744184 59.4865089,13.5411053 58.7920107,13.2155454 C58.0605498,12.8458787 57.0054076,12.6610453 55.6265842,12.6610453 C54.5552488,12.6586929 53.4868881,12.7775742 52.440622,13.0155618 C51.4846103,13.2286748 50.54822,13.5267293 49.6419039,13.9063981 C49.2305721,13.5930794 48.9042453,13.1756818 48.6943295,12.6943759 C48.4396779,12.1620009 48.3071712,11.5761975 48.3070855,10.9823946 C48.2713594,10.3119656 48.4656088,9.64998854 48.8556812,9.11285039 C49.3067845,8.58613628 49.8758483,8.18146549 50.5132029,7.93415883 C51.4666366,7.57849538 52.4571538,7.33950981 53.4644718,7.22209581 C54.5248674,7.07962055 55.5928487,7.00574516 56.6621686,7.00090176 Z M56.997321,24 C57.5527032,23.9958684 58.106728,23.9459094 58.6534533,23.8506589 C59.1233486,23.7930498 59.5791588,23.6552697 60,23.443631 L60,20 L56.8229913,20.2576867 C56.1164622,20.2848322 55.424336,20.4606489 54.7941541,20.77306 C54.2938166,21.0144354 53.98381,21.5178032 54.0006533,22.0614934 C53.9872999,22.6069315 54.2418898,23.1258398 54.6859494,23.4582723 C55.1388059,23.8194241 55.9092631,24 56.997321,24 L56.997321,24 Z" id="Shape" fill-rule="nonzero"></path>
                <path d="M79.4393181,21.9272818 C79.4393181,22.6981301 79.6829661,23.2459973 80.1702621,23.5708836 C80.7953275,23.9328361 81.5125247,24.1033112 82.2332155,24.0612399 C82.6935166,24.0596232 83.152997,24.0221789 83.607511,23.949245 C84.0289797,23.8830718 84.4442147,23.7818253 84.8489076,23.6465559 C85.120566,23.9812755 85.3517274,24.3470479 85.5375655,24.7362366 C85.7453002,25.1886295 85.8485428,25.6821503 85.8396085,26.1800636 C85.8680031,27.2447952 85.401569,28.2624102 84.5770689,28.9345344 C83.7353758,29.6448448 82.2503313,30 80.1219352,30 C77.5203385,30 75.5177937,29.4077383 74.1143007,28.223215 C72.7108078,27.0386917 72.0060409,25.113589 72,22.4479071 L72,3.44205876 C72.3161383,3.35125204 72.7762504,3.25540049 73.3803363,3.15450412 C74.0182008,3.04866135 74.663849,2.99702051 75.3103909,3 C76.6111892,3 77.6240399,3.2301764 78.348943,3.69026382 C79.0738461,4.15035125 79.4362977,5.12097428 79.4362977,6.60213292 L79.4362977,9.44741042 L85.2445838,9.44741042 C85.4491531,9.83553845 85.6199369,10.240625 85.7550364,10.6581668 C85.9231184,11.1822677 86.0057312,11.73011 85.9996912,12.2805804 C85.9996912,13.317795 85.7701386,14.0654371 85.3110333,14.5235065 C84.8184163,14.9968417 84.1532762,15.2463924 83.4715917,15.2136377 L79.4393181,15.2136377 L79.4393181,21.9272818 Z" id="Path"></path>
                <path d="M97.8255265,29.5982363 C97.3173176,29.7196262 96.8019533,29.808931 96.2824957,29.8656198 C95.5931456,29.9541675 94.8988493,29.9988217 94.2038171,29.9993116 C93.5965833,30.0066868 92.9900814,29.9547863 92.3929623,29.8443507 C91.9173639,29.760412 91.4668896,29.5703398 91.075147,29.2883144 C90.7044918,29.0024402 90.4252913,28.6149473 90.2716753,28.1732035 C90.0730946,27.5687825 89.9824416,26.9342259 90.0038514,26.2984802 L90.0038514,5.2876023 C89.9703825,4.75470988 90.1561471,4.23125404 90.518195,3.83826191 C90.9168664,3.46805114 91.3929835,3.1909458 91.9120967,3.02699591 C93.0355846,2.64484943 94.1965979,2.38308332 95.3755466,2.2461144 C96.6727048,2.08233475 97.9788936,2 99.2863842,2 C103.397075,2 106.541977,2.87709907 108.72109,4.63129722 C110.900202,6.38549536 111.992802,8.76055001 111.998889,11.7564612 C112.018314,13.1049613 111.7829,14.4450282 111.304981,15.7064454 C110.858533,16.8609964 110.156224,17.8997434 109.25065,18.7448949 C108.260015,19.6398587 107.08665,20.3095473 105.811548,20.7077332 C104.258277,21.1943489 102.636693,21.428261 101.008979,21.4004997 L97.8255265,21.4004997 L97.8255265,29.6043132 L97.8255265,29.5982363 Z M100.273346,14.9969828 C101.473735,14.9969828 102.394942,14.7093395 103.036965,14.134053 C103.678988,13.5587664 104,12.6797447 104,11.4969878 C104,10.3745756 103.664397,9.51064002 102.993191,8.90518111 C102.321984,8.29972221 101.343385,7.9979985 100.057393,8 C99.6001946,8 99.2217899,8.00705021 98.922179,8.02113065 C98.6127538,8.03743202 98.304698,8.07472485 98,8.13276842 L98,15 L100.270428,15 L100.273346,14.9969828 Z" id="Shape" fill-rule="nonzero"></path>
                <path d="M121.493392,28.6102406 C121.038721,28.7280379 120.576332,28.8147717 120.109524,28.8698231 C119.461364,28.9576037 118.807798,29.0009716 118.153539,28.9996143 C117.571754,29.0046031 116.99058,28.961185 116.416217,28.8698231 C115.946631,28.8009914 115.500753,28.6219144 115.11622,28.3477084 C114.752027,28.0728947 114.470429,27.7058642 114.301476,27.2857801 C114.086154,26.7256256 113.98439,26.1293453 114.001938,25.5306486 L114.001938,12.5515251 C113.985625,11.9599136 114.114044,11.3731165 114.376361,10.8406406 C114.641566,10.3430568 115.009967,9.90589378 115.457694,9.55747729 C115.989273,9.14511375 116.573333,8.80298538 117.195017,8.53979602 C117.916138,8.22453195 118.657611,7.95650037 119.414596,7.7374502 C120.222089,7.50253523 121.044669,7.32120736 121.876801,7.19468685 C122.720145,7.06535478 123.572363,7.00026617 124.425872,7 C125.823717,7 126.938,7.26744861 127.76872,7.80234582 C128.599439,8.33724303 129.009807,9.21038406 128.999822,10.4217689 C128.99853,10.8213759 128.939015,11.2187326 128.823095,11.6016892 C128.714736,11.9699587 128.567142,12.3259134 128.382773,12.6636175 C127.767721,12.6636175 127.137692,12.6921323 126.492686,12.7491618 C125.84768,12.8061912 125.217651,12.8927187 124.602599,13.0087442 C123.987547,13.1247697 123.40844,13.2476781 122.865277,13.3774693 C122.390313,13.4850166 121.926907,13.6371349 121.48141,13.8317386 L121.48141,28.6102406 L121.493392,28.6102406 Z" id="Path"></path>
                <path d="M152.998134,18.4772962 C153.02593,20.1524161 152.742992,21.8179388 152.164013,23.3873783 C151.655275,24.7583783 150.853908,25.9987614 149.817113,27.0199915 C148.781166,28.0143734 147.546536,28.7720809 146.196609,29.2419399 C144.685094,29.7635726 143.096584,30.0195294 141.499819,29.9987343 C139.899463,30.0209632 138.308307,29.7502226 136.80303,29.1995594 C135.452006,28.7002415 134.21885,27.9207552 133.182526,26.9110131 C132.15184,25.8846991 131.351412,24.6457684 130.835626,23.2783999 C130.25972,21.7459855 129.976658,20.116717 130.001505,18.4772962 C129.979296,16.8528579 130.262364,15.2389602 130.835626,13.7216001 C131.351663,12.3543614 132.152058,11.1154817 133.182526,10.0889869 C134.219013,9.07945635 135.452122,8.29999953 136.80303,7.80044057 C138.308307,7.24977743 139.899463,6.97903679 141.499819,7.00126566 C143.102211,6.97955543 144.694699,7.25873392 146.196609,7.82465799 C147.545954,8.33738132 148.77788,9.12330136 149.817113,10.1343945 C150.84729,11.1611299 151.647642,12.3999417 152.164013,13.7670077 C152.733997,15.2694914 153.01705,16.8678946 152.998134,18.4772962 L152.998134,18.4772962 Z M138,18.4786841 C138,20.2684535 138.356037,21.6336499 139.068111,22.5742732 C139.744441,23.506492 140.866898,24.0427343 142.04644,23.9971399 C143.221218,24.0448534 144.335235,23.4928786 144.978328,22.5444437 C145.659443,21.5819454 146,20.2247036 146,18.4727182 C146,16.7207327 145.651187,15.3704511 144.95356,14.4218733 C144.255944,13.5267173 143.16183,13 142,13 C140.83817,13 139.744056,13.5267173 139.04644,14.4218733 C138.348813,15.3744284 138,16.7266986 138,18.4786841 Z" id="Shape" fill-rule="nonzero"></path>
            </g>
        </g>
    </g>
</svg>